<svg xmlns="http://www.w3.org/2000/svg" version="1.1" xmlns:xlink="http://www.w3.org/1999/xlink" viewBox="0 0 13.900618547387193 5.729844848005865"><g transform="matrix(0.7779072974752117,0,0,0.7779072974752117,5.675785564802857,2.105791863920529)"><rect width="15.536490497003282" height="15.536490497003282" x="-6.129844743676254" y="-6.792382748501641" fill="#ffffff"></rect><g transform="matrix(1,0,0,1,0,0)" clip-path="url(#SvgjsClipPath95112)"><g clip-path="url(#a6eb9ccd6-45ec-4267-827b-d182bbc21d84416065bf-c9d1-4710-88aa-853dbd6cfce8)"><path d=" M -2.4514164456080754 -0.690422431207123 C -1.5296299628664491 -0.690422431207123 -0.7822704377120959 0.05684480455168184 -0.7822704377120959 0.9787235766888567 C -0.7822704377120959 1.900510059430482 -1.5296299628664496 2.6477772951892873 -2.4514164456080754 2.6477772951892873 C -3.373202928349701 2.6477772951892873 -4.120562453504054 1.900510059430482 -4.120562453504054 0.9787235766888567 C -4.120562453504054 0.05684480455168184 -3.373202928349701 -0.690422431207123 -2.4514164456080754 -0.690422431207123" fill="#404040" transform="matrix(1,0,0,1,0,0)" fill-rule="nonzero"></path></g><g clip-path="url(#a6eb9ccd6-45ec-4267-827b-d182bbc21d84416065bf-c9d1-4710-88aa-853dbd6cfce8)"><path d=" M -0.5224757892421645 1.0983306333201286 C -0.5901239161794498 1.0983306333201286 -0.6449438171354496 1.0435107323641288 -0.6449438171354496 0.9758626054268427 L -0.6449438171354496 0.9757703160312938 L -0.6449438171354496 0.9758626054268427 C -0.6449438171354496 1.9695425273010003 -1.4533066327475748 2.777905342913124 -2.446986554621732 2.777905342913124 C -2.514623778769046 2.777905342913124 -2.569454582515018 2.832736146659096 -2.569454582515018 2.9003733708064097 C -2.569454582515018 2.9680105949537237 -2.514623778769046 3.0228413986996956 -2.446986554621732 3.0228413986996956 C -1.903799579040904 3.024310165930608 -1.382594322034692 2.8084373433399197 -0.9995196748340205 2.4233294852145537 C -0.6144747919753151 2.0402882121979378 -0.3986089042624785 1.5191661599946262 -0.4000077613488786 0.9760471842179408 C -0.4001095928592626 1.043612314646004 -0.454910582075974 1.0983307100583142 -0.5224757892421703 1.0983306333201286" fill="#4e888f" transform="matrix(1,0,0,1,0,0)" fill-rule="nonzero"></path></g><g clip-path="url(#a6eb9ccd6-45ec-4267-827b-d182bbc21d84416065bf-c9d1-4710-88aa-853dbd6cfce8)"><path d=" M -2.5694545825150175 2.900373370806411 C -2.5694545825150175 2.8327252438691257 -2.5146346815590177 2.777905342913126 -2.4469865546217315 2.777905342913126 C -3.440666476495889 2.777905342913126 -4.2490292921080135 1.9695425273010008 -4.2490292921080135 0.9758626054268431 C -4.2490292921080135 0.9082253812795298 -4.303860095853985 0.8533945775335579 -4.371497320001299 0.8533945775335579 C -4.439134544148613 0.8533945775335579 -4.4939653478945845 0.9082253812795298 -4.4939653478945845 0.9758626054268431 C -4.495434115125491 1.5190495810076965 -4.279561292534796 2.040254838013906 -3.894453434409425 2.4233294852145715 C -3.5113846275343272 2.808446059193883 -2.9901755629194504 3.024320458820141 -2.446986554621731 3.0228413986996965 C -2.5146346815590177 3.0228413986996965 -2.5694545825150175 2.9680214977436967 -2.5694545825150175 2.900373370806411" fill="#bab9b4" transform="matrix(1,0,0,1,0,0)" fill-rule="nonzero"></path></g><g clip-path="url(#a6eb9ccd6-45ec-4267-827b-d182bbc21d84416065bf-c9d1-4710-88aa-853dbd6cfce8)"><path d=" M -2.4469865546217315 -1.07111618784601 C -2.9901755629194513 -1.0725952479664542 -3.511384627534328 -0.8567208483401955 -3.8944534344094435 -0.4716042743608674 C -4.279555946591608 -0.08856383205502394 -4.4954300318490565 0.43261124169691145 -4.493965347894585 0.9757703160312952 C -4.493939862072485 0.9081330923882318 -4.439088398772236 0.8533229491920244 -4.371451175128895 0.8533484343014515 C -4.303813951485554 0.853373919410878 -4.249003807711393 0.9082253821336077 -4.249029292108146 0.9758626057772171 L -4.249029292108146 0.9759548948223924 L -4.249029292108146 0.9758626054268436 C -4.2490292921080135 -0.01781731644731388 -3.440666476495889 -0.8261801320594383 -2.4469865546217315 -0.8261801320594383 C -2.379349330474418 -0.8261801320594383 -2.324518526728446 -0.8810109358054101 -2.324518526728446 -0.9486481599527241 C -2.324518526728446 -1.016285384100038 -2.379349330474418 -1.07111618784601 -2.4469865546217315 -1.07111618784601" fill="#4e888f" transform="matrix(1,0,0,1,0,0)" fill-rule="nonzero"></path></g><g clip-path="url(#a6eb9ccd6-45ec-4267-827b-d182bbc21d84416065bf-c9d1-4710-88aa-853dbd6cfce8)"><path d=" M -0.9995196748340214 -0.4716042743608678 C -1.3825767989818143 -0.8567382826110082 -1.9037934805462853 -1.0726158370258774 -2.446986554621732 -1.0711161878460103 C -2.3793493304744184 -1.07111618784601 -2.324518526728447 -1.0162853841000383 -2.324518526728447 -0.9486481599527244 C -2.324518526728447 -0.8810109358054106 -2.3793493304744184 -0.8261801320594387 -2.446986554621732 -0.8261801320594387 C -1.4533066327475748 -0.8261801320594387 -0.6449438171354505 -0.017817316447314102 -0.6449438171354505 0.9758626054268431 C -0.6449438171354505 1.043499829574157 -0.5901130133894785 1.098330633320129 -0.5224757892421645 1.098330633320129 C -0.45483856509485054 1.098330633320129 -0.4000077613488786 1.043499829574157 -0.4000077613488786 0.9758626054268431 C -0.3985081121690186 0.43266953135136976 -0.6143856665838943 -0.08854715021309834 -0.9995196748340396 -0.47160427436088637" fill="#bab9b4" transform="matrix(1,0,0,1,0,0)" fill-rule="nonzero"></path></g><g clip-path="url(#a6eb9ccd6-45ec-4267-827b-d182bbc21d84416065bf-c9d1-4710-88aa-853dbd6cfce8)"><path d=" M -1.3616632629675953 0.7894380264182246 C -1.3632741823503567 0.7890115602794239 -1.3649070204474834 0.7886726693536052 -1.3665546009316825 0.7884228430671874 L -1.5696835605346382 0.7566752909983929 C -1.591512631431613 0.6653578861756841 -1.6276107930477766 0.578055774864116 -1.6766469699757218 0.4979881152750476 L -1.550671945051581 0.32531465620320277 C -1.5347902829269637 0.3024062375926271 -1.537180017955456 0.2714938586756743 -1.556393887575608 0.25129856097304826 L -1.729159636043001 0.07853281250565525 C -1.7494080499490572 0.05946068423040707 -1.7801976843371614 0.057042047115132055 -1.8031757312731558 0.0727185805860795 L -1.975849190345 0.19878589490576903 C -2.031941463920919 0.16451166396667727 -2.091644923632827 0.1365324376423822 -2.153875434358676 0.11535628132963449 C -2.180384320605837 0.10624325125881318 -2.207299977853353 0.0983594889529047 -2.234536366068346 0.09173019606913635 L -2.26628391813714 -0.11130647413827022 C -2.268472423293842 -0.12382513711709431 -2.2747727398872457 -0.13525663938966226 -2.284188060873612 -0.14379234137145536 C -2.294616402223941 -0.15371099484674655 -2.308376005345065 -0.15937284110711358 -2.322765028213019 -0.15966611740585257 L -2.567147347626297 -0.15966611740585257 C -2.594929945154716 -0.15869099804568787 -2.618338137103212 -0.1386158874384672 -2.623536168306627 -0.11130647413827022 L -2.6552837203754214 0.09173019606913635 C -2.717999590791083 0.10683058861421202 -2.778896267481607 0.12867665250827187 -2.8369092508155007 0.15688650932660408 C -2.8632720233260613 0.16957299131476233 -2.8889907039468863 0.1835565613768635 -2.913970896098765 0.1987858949057677 L -3.0866443551706118 0.07271858058607905 C -3.109593598496722 0.056934250020210575 -3.1404573186489406 0.05935870684014799 -3.160660450400766 0.0785328125056548 L -3.3334261988681586 0.25129856097304804 C -3.351964798918165 0.2711067080940113 -3.354736928796685 0.3009545722654774 -3.340163324743223 0.32383802587442156 L -3.339148141392186 0.32531465620320277 L -3.3236435229399843 0.34654121717943154 L -3.2131731164680453 0.49798811527504716 C -3.24710082510686 0.5535576848352373 -3.27485983521974 0.6126654990109353 -3.2959567042753384 0.6742608607732956 C -3.3053511893781016 0.7013230618697226 -3.3134207088223575 0.7288271873037704 -3.3201365259091293 0.7566752909983947 L -3.357052284128657 0.7624895229179687 L -3.523265485512084 0.7884228430671874 C -3.5506120001918724 0.7935317373146531 -3.570703958540034 0.8170043693428111 -3.5715328393841177 0.8448116637475169 L -3.5715328393841177 1.0891939831607957 C -3.570669464581485 1.116987930798384 -3.5505934916967705 1.1404418876484037 -3.523265485512084 1.1455828038411253 L -3.3201365259091284 1.1773303559099197 L -3.319121342558092 1.1813910893140678 C -3.316133072296841 1.193683807130153 -3.312840404957602 1.2059005261364875 -3.309246377234368 1.2180299793469493 C -3.3074005893233913 1.224582526430916 -3.3053702226213173 1.2311350735148827 -3.3033398559192433 1.237687620598849 C -3.3019555149860107 1.2419329327940947 -3.300663463448328 1.2462705343848892 -3.2991868331195464 1.250515846580135 C -3.297064177021923 1.2570683936641012 -3.294756942133203 1.2637132301436163 -3.292449707244482 1.270265777227583 L -3.292357417848933 1.270173487832034 C -3.2717431792928515 1.3280337534974338 -3.2452076059293367 1.383610006800739 -3.2131731164680435 1.4360175316332664 L -3.3391481413921857 1.6086909907051097 C -3.354935376968454 1.6316576705497101 -3.3525518387659616 1.6625283346884454 -3.3334261988681586 1.6827993753308133 L -3.1606604504007656 1.8555651237982067 C -3.1403745882363405 1.8745745129775968 -3.109610834579493 1.8769527582727648 -3.086644355170611 1.8612870663222334 L -2.9139708960987667 1.7352197520025436 C -2.8671760982060293 1.7637683250532161 -2.8178737036650725 1.7879870451785984 -2.7666770208028497 1.8075746381128184 L -2.766769310198397 1.8076669275083685 L -2.761508814652114 1.8096050048148937 L -2.749603482626316 1.8139426064056883 L -2.7303149989566124 1.8206797322807522 L -2.7185019563263633 1.8244635974982537 C -2.711303383473555 1.8267708323869747 -2.7041048106207466 1.8289857778801464 -2.6968139483723905 1.8311084339777692 C -2.6935838195281816 1.8320313279332572 -2.6904459800795215 1.8330465112842944 -2.687215851235313 1.8338771158442335 C -2.6774331753071374 1.8366457977106982 -2.667650499378963 1.8391376113905165 -2.657867823450788 1.8415371356747854 L -2.655191430979872 1.8421831614436273 L -2.623536168306626 2.045312121046583 C -2.6183939674543546 2.0726910542287946 -2.594899287623578 2.0928074140839037 -2.567055058230748 2.0936717643141654 L -2.322765028213018 2.0936717643141654 C -2.2949341133730945 2.092773073073859 -2.271457999797942 2.0726726098167028 -2.2662839181371397 2.045312121046583 L -2.2345363660683453 1.8422754508391765 L -2.2322291311796247 1.8416294250703351 C -2.223277059811389 1.8394144795771634 -2.2143249884431535 1.8371072446884424 -2.2054652064704663 1.834707720404173 L -2.1936521638402176 1.8312930127688665 L -2.1755634423126486 1.8258479384314863 C -2.1641747403155738 1.822270242487027 -2.1528520361616748 1.8184857516964579 -2.1416009447506887 1.8144963427789835 L -2.141693234146231 1.8144963427789835 C -2.083848304921718 1.793845216435563 -2.0282757586980056 1.7673114130633065 -1.9758491903450004 1.7353120413980934 L -1.803175731273155 1.8612870663222334 C -1.7802379703913727 1.8770599910507317 -1.7494006397691186 1.8746760577607322 -1.7291596360430006 1.8555651237982067 L -1.5563938875756071 1.6827070859352649 C -1.537282953613082 1.6624660822091468 -1.5348990203230821 1.6316287515868928 -1.5506719450515805 1.6086909907051106 L -1.6766469699757214 1.436017531633266 C -1.6482218361466847 1.3895959656722088 -1.6240420145128933 1.3402211390535896 -1.6042920838654458 1.2887236563373472 L -1.6041997944698965 1.2888159457328965 L -1.6023540065589201 1.283647739582162 L -1.5980164049681256 1.2716501181608155 C -1.5943343694722039 1.2613636495803267 -1.59079626386192 1.2510262279711495 -1.5874031244800078 1.2406408812564012 C -1.5850958895912908 1.2334423084036037 -1.582973233493668 1.2263360249463444 -1.5808505773960446 1.2191374520935363 L -1.5779896061340315 1.2091701973742635 C -1.5754055030586644 1.1999412578193818 -1.573005978774395 1.1906200288689508 -1.5706987438856745 1.1812987999185194 L -1.5696835605346373 1.177422645305469 L -1.366554600931682 1.1456750932366746 C -1.356576551770368 1.1439726553308383 -1.3472560311965198 1.1395677517719647 -1.3396060974314263 1.1329391566509375 C -1.3264756533371034 1.1221521064312823 -1.318692921568735 1.1061823451403452 -1.3182872470596485 1.0891939831607962 L -1.3182872470596485 0.8448116637475174 C -1.3190402463968138 0.8188395515961973 -1.3366270621661753 0.7963882974225447 -1.3616632629675953 0.7894380264182246 M -2.335500964798756 1.6206886121264565 L -2.336146990567598 1.620042586357615 C -2.383184799654088 1.6281428351303702 -2.430962886519976 1.6311134933810996 -2.4786418172949776 1.6289023683303019 C -2.5116814209014557 1.6271488698148744 -2.5441672881346404 1.622995847015177 -2.575730261412337 1.6167201681178573 L -2.5758225508078865 1.6167201681178573 C -2.8451760772531145 1.5623378098824805 -3.053080968113769 1.3474587083467688 -3.0985496871964093 1.0764580465750582 L -3.0979036614275675 1.0758120208062167 C -3.104135584601801 1.0398724575519842 -3.1073768171530247 1.0034780463339548 -3.107594047960194 0.9670028234541563 C -3.107345919633815 0.7146642091017461 -2.963799822999347 0.48436837546758715 -2.737357225343967 0.3730194292307436 C -2.5109146276885865 0.2616704829939003 -2.2408839193552867 0.2885975958220639 -2.04088888655861 0.4424703507776704 C -1.840893853761933 0.5963431057332766 -1.7456518283874454 0.8504505819137498 -1.7952388432559525 1.0978691863423626 L -1.7951465538604077 1.0979614757379337 C -1.849589718056046 1.3673160597383052 -2.064489471863821 1.5752054202109331 -2.3355009647987552 1.6206886121264565" fill="#bab9b4" transform="matrix(1,0,0,1,0,0)" fill-rule="nonzero"></path></g></g><g><path d=" M 1.341 0.0029999999999996696 L 1.341 0.032999999999999696 Q 1.293 0.03449999999999975 1.2690000000000001 0.04424999999999968 Q 1.245 0.053999999999999604 1.23675 0.08024999999999971 Q 1.2285 0.1064999999999997 1.2285 0.1619999999999997 L 1.2285 0.9059999999999997 Q 1.2285 0.9599999999999997 1.23675 0.9869999999999998 Q 1.245 1.0139999999999998 1.2690000000000001 1.0229999999999997 Q 1.293 1.0319999999999998 1.341 1.0349999999999997 L 1.341 1.0649999999999997 Q 1.299 1.0619999999999998 1.23525 1.0612499999999998 Q 1.1715 1.0604999999999998 1.1055 1.0604999999999998 Q 1.0335 1.0604999999999998 0.9705 1.0612499999999998 Q 0.9075 1.0619999999999998 0.8685 1.0649999999999997 L 0.8685 1.0349999999999997 Q 0.9195 1.0319999999999998 0.94575 1.0229999999999997 Q 0.972 1.0139999999999998 0.981 0.9869999999999998 Q 0.99 0.9599999999999997 0.99 0.9059999999999997 L 0.99 0.0944999999999997 L 1.0005 0.0944999999999997 L 0.6285000000000001 1.0664999999999998 L 0.6045 1.0664999999999998 L 0.1995 0.1004999999999997 L 0.1995 0.8189999999999997 Q 0.1995 0.9014999999999997 0.2085 0.9457499999999998 Q 0.2175 0.9899999999999998 0.24825 1.0087499999999998 Q 0.279 1.0274999999999996 0.34500000000000003 1.0349999999999997 L 0.34500000000000003 1.0649999999999997 Q 0.3165 1.0619999999999998 0.27 1.0612499999999998 Q 0.2235 1.0604999999999998 0.183 1.0604999999999998 Q 0.1485 1.0604999999999998 0.1125 1.0612499999999998 Q 0.0765 1.0619999999999998 0.0525 1.0649999999999997 L 0.0525 1.0349999999999997 Q 0.1005 1.0274999999999996 0.1245 1.0094999999999996 Q 0.1485 0.9914999999999997 0.15675 0.9502499999999997 Q 0.165 0.9089999999999997 0.165 0.8369999999999997 L 0.165 0.1619999999999997 Q 0.165 0.1064999999999997 0.15675 0.08024999999999971 Q 0.1485 0.053999999999999604 0.12375 0.04424999999999968 Q 0.099 0.03449999999999975 0.0525 0.032999999999999696 L 0.0525 0.0029999999999996696 Q 0.0765 0.0044999999999997264 0.1125 0.005999999999999783 Q 0.1485 0.007499999999999618 0.183 0.007499999999999618 Q 0.2475 0.007499999999999618 0.30975 0.005999999999999783 Q 0.372 0.0044999999999997264 0.42 0.0029999999999996696 L 0.735 0.7634999999999997 L 0.6975 0.7979999999999997 L 0.999 0.007499999999999618 Q 1.0245 0.007499999999999618 1.0515 0.007499999999999618 Q 1.0785 0.007499999999999618 1.1055 0.007499999999999618 Q 1.1715 0.007499999999999618 1.23525 0.005999999999999783 Q 1.299 0.0044999999999997264 1.341 0.0029999999999996696 M 1.9455029296875002 -2.220446049250313e-16 L 2.3100029296875 0.9389999999999997 Q 2.3310029296875 0.9929999999999997 2.3572529296875 1.0132499999999998 Q 2.3835029296875003 1.0334999999999996 2.4045029296875002 1.0349999999999997 L 2.4045029296875002 1.0649999999999997 Q 2.3595029296875003 1.0619999999999998 2.2987529296875002 1.0612499999999998 Q 2.2380029296875 1.0604999999999998 2.1765029296875 1.0604999999999998 Q 2.1075029296875 1.0604999999999998 2.0460029296875 1.0612499999999998 Q 1.9845029296875 1.0619999999999998 1.9485029296875003 1.0649999999999997 L 1.9485029296875003 1.0349999999999997 Q 2.0250029296875 1.0319999999999998 2.0452529296875 1.0087499999999998 Q 2.0655029296875003 0.9854999999999997 2.0355029296875 0.9089999999999997 L 1.7805029296875001 0.2114999999999997 L 1.8075029296875003 0.17249999999999965 L 1.5795029296875 0.7664999999999997 Q 1.5375029296875002 0.8774999999999997 1.5382529296875 0.9344999999999997 Q 1.5390029296875 0.9914999999999997 1.5750029296875 1.0117499999999997 Q 1.6110029296875001 1.0319999999999998 1.6710029296875002 1.0349999999999997 L 1.6710029296875002 1.0649999999999997 Q 1.6215029296875 1.0619999999999998 1.5765029296875002 1.0612499999999998 Q 1.5315029296875 1.0604999999999998 1.4850029296875 1.0604999999999998 Q 1.4520029296875 1.0604999999999998 1.4227529296875001 1.0612499999999998 Q 1.3935029296875001 1.0619999999999998 1.3710029296875001 1.0649999999999997 L 1.3710029296875001 1.0349999999999997 Q 1.4025029296875 1.0289999999999997 1.4355029296875002 0.9944999999999997 Q 1.4685029296875 0.9599999999999997 1.5000029296875002 0.8774999999999997 L 1.8420029296875002 -2.220446049250313e-16 Q 1.8660029296875003 0.0014999999999996128 1.8937529296875 0.0014999999999996128 Q 1.9215029296875001 0.0014999999999996128 1.9455029296875002 -2.220446049250313e-16 M 2.0505029296875 0.6329999999999998 L 2.0505029296875 0.6629999999999997 L 1.6035029296875 0.6629999999999997 L 1.6185029296875002 0.6329999999999998 L 2.0505029296875 0.6329999999999998 M 2.8814619140625 0.0029999999999996696 Q 3.1769619140625003 0.0029999999999996696 3.3209619140625004 0.13724999999999965 Q 3.4649619140625 0.27149999999999974 3.4649619140625 0.5219999999999997 Q 3.4649619140625 0.6854999999999998 3.3944619140625 0.8077499999999997 Q 3.3239619140625 0.9299999999999997 3.1897119140625003 0.9974999999999997 Q 3.0554619140625 1.0649999999999997 2.8679619140625 1.0649999999999997 Q 2.8319619140625 1.0649999999999997 2.7652119140625 1.0627499999999996 Q 2.6984619140625004 1.0604999999999998 2.6489619140625003 1.0604999999999998 Q 2.5829619140625004 1.0604999999999998 2.5192119140625002 1.0612499999999998 Q 2.4554619140625 1.0619999999999998 2.4179619140625004 1.0649999999999997 L 2.4179619140625004 1.0349999999999997 Q 2.4659619140625004 1.0319999999999998 2.4899619140625004 1.0229999999999997 Q 2.5139619140625 1.0139999999999998 2.5222119140625003 0.9869999999999998 Q 2.5304619140625 0.9599999999999997 2.5304619140625 0.9059999999999997 L 2.5304619140625 0.1619999999999997 Q 2.5304619140625 0.1064999999999997 2.5222119140625003 0.08024999999999971 Q 2.5139619140625 0.053999999999999604 2.4892119140625004 0.04424999999999968 Q 2.4644619140625004 0.03449999999999975 2.4179619140625004 0.032999999999999696 L 2.4179619140625004 0.0029999999999996696 Q 2.4554619140625 0.0044999999999997264 2.5192119140625002 0.006749999999999812 Q 2.5829619140625004 0.008999999999999675 2.6459619140625 0.007499999999999618 Q 2.6999619140625004 0.005999999999999783 2.7682119140625003 0.0044999999999997264 Q 2.8364619140625003 0.0029999999999996696 2.8814619140625 0.0029999999999996696 M 2.8799619140625 0.029999999999999805 Q 2.8109619140625 0.029999999999999805 2.7899619140625003 0.05549999999999966 Q 2.7689619140625004 0.08099999999999974 2.7689619140625004 0.1589999999999997 L 2.7689619140625004 0.9089999999999997 Q 2.7689619140625004 0.9869999999999998 2.7907119140625003 1.0124999999999997 Q 2.8124619140625002 1.0379999999999998 2.8814619140625 1.0379999999999998 Q 3.0074619140625 1.0379999999999998 3.0802119140625 0.9787499999999997 Q 3.1529619140625003 0.9194999999999998 3.1844619140625 0.8054999999999997 Q 3.2159619140625004 0.6914999999999998 3.2159619140625004 0.5279999999999997 Q 3.2159619140625004 0.2759999999999997 3.1379619140625 0.1529999999999997 Q 3.0599619140625003 0.029999999999999805 2.8799619140625 0.029999999999999805 M 4.207505126953126 1.0649999999999997 L 4.207505126953126 1.0349999999999997 Q 4.255505126953126 1.0319999999999998 4.279505126953126 1.0229999999999997 Q 4.303505126953126 1.0139999999999998 4.311755126953125 0.9869999999999998 Q 4.320005126953125 0.9599999999999997 4.320005126953125 0.9059999999999997 L 4.320005126953125 0.1619999999999997 Q 4.320005126953125 0.1064999999999997 4.311755126953125 0.08024999999999971 Q 4.303505126953126 0.053999999999999604 4.278755126953126 0.04424999999999968 Q 4.254005126953126 0.03449999999999975 4.207505126953126 0.032999999999999696 L 4.207505126953126 0.0029999999999996696 Q 4.248005126953125 0.0044999999999997264 4.313255126953125 0.005999999999999783 Q 4.378505126953125 0.007499999999999618 4.443005126953126 0.007499999999999618 Q 4.512005126953126 0.007499999999999618 4.572755126953125 0.005999999999999783 Q 4.633505126953125 0.0044999999999997264 4.671005126953125 0.0029999999999996696 L 4.671005126953125 0.032999999999999696 Q 4.623005126953125 0.03449999999999975 4.598255126953125 0.04424999999999968 Q 4.573505126953125 0.053999999999999604 4.566005126953126 0.08024999999999971 Q 4.558505126953126 0.1064999999999997 4.558505126953126 0.1619999999999997 L 4.558505126953126 0.9059999999999997 Q 4.558505126953126 0.9599999999999997 4.566755126953126 0.9869999999999998 Q 4.575005126953125 1.0139999999999998 4.599005126953125 1.0229999999999997 Q 4.623005126953125 1.0319999999999998 4.671005126953125 1.0349999999999997 L 4.671005126953125 1.0649999999999997 Q 4.633505126953125 1.0619999999999998 4.572755126953125 1.0612499999999998 Q 4.512005126953126 1.0604999999999998 4.443005126953126 1.0604999999999998 Q 4.378505126953125 1.0604999999999998 4.313255126953125 1.0612499999999998 Q 4.248005126953125 1.0619999999999998 4.207505126953126 1.0649999999999997 M 3.5715051269531255 1.0649999999999997 L 3.5715051269531255 1.0349999999999997 Q 3.6195051269531255 1.0319999999999998 3.6435051269531256 1.0229999999999997 Q 3.667505126953125 1.0139999999999998 3.6757551269531255 0.9869999999999998 Q 3.6840051269531253 0.9599999999999997 3.6840051269531253 0.9059999999999997 L 3.6840051269531253 0.1619999999999997 Q 3.6840051269531253 0.1064999999999997 3.6757551269531255 0.08024999999999971 Q 3.667505126953125 0.053999999999999604 3.6427551269531255 0.04424999999999968 Q 3.6180051269531255 0.03449999999999975 3.5715051269531255 0.032999999999999696 L 3.5715051269531255 0.0029999999999996696 Q 3.610505126953125 0.0044999999999997264 3.6727551269531253 0.005999999999999783 Q 3.7350051269531255 0.007499999999999618 3.8085051269531256 0.007499999999999618 Q 3.8715051269531253 0.007499999999999618 3.9330051269531254 0.005999999999999783 Q 3.9945051269531255 0.0044999999999997264 4.035005126953125 0.0029999999999996696 L 4.035005126953125 0.032999999999999696 Q 3.9870051269531253 0.03449999999999975 3.962255126953125 0.04424999999999968 Q 3.937505126953125 0.053999999999999604 3.9300051269531253 0.08024999999999971 Q 3.9225051269531255 0.1064999999999997 3.9225051269531255 0.1619999999999997 L 3.9225051269531255 0.9059999999999997 Q 3.9225051269531255 0.9599999999999997 3.9307551269531253 0.9869999999999998 Q 3.939005126953125 1.0139999999999998 3.9630051269531252 1.0229999999999997 Q 3.9870051269531253 1.0319999999999998 4.035005126953125 1.0349999999999997 L 4.035005126953125 1.0649999999999997 Q 3.9945051269531255 1.0619999999999998 3.9330051269531254 1.0612499999999998 Q 3.8715051269531253 1.0604999999999998 3.8085051269531256 1.0604999999999998 Q 3.7350051269531255 1.0604999999999998 3.6727551269531253 1.0612499999999998 Q 3.610505126953125 1.0619999999999998 3.5715051269531255 1.0649999999999997 M 3.8250051269531253 0.5459999999999997 L 3.8250051269531253 0.5159999999999997 L 4.417505126953126 0.5159999999999997 L 4.417505126953126 0.5459999999999997 L 3.8250051269531253 0.5459999999999997 M 5.27548681640625 -2.220446049250313e-16 L 5.6399868164062505 0.9389999999999997 Q 5.6609868164062505 0.9929999999999997 5.687236816406251 1.0132499999999998 Q 5.713486816406251 1.0334999999999996 5.734486816406251 1.0349999999999997 L 5.734486816406251 1.0649999999999997 Q 5.689486816406251 1.0619999999999998 5.62873681640625 1.0612499999999998 Q 5.5679868164062505 1.0604999999999998 5.506486816406251 1.0604999999999998 Q 5.437486816406251 1.0604999999999998 5.37598681640625 1.0612499999999998 Q 5.314486816406251 1.0619999999999998 5.27848681640625 1.0649999999999997 L 5.27848681640625 1.0349999999999997 Q 5.35498681640625 1.0319999999999998 5.37523681640625 1.0087499999999998 Q 5.39548681640625 0.9854999999999997 5.365486816406251 0.9089999999999997 L 5.110486816406251 0.2114999999999997 L 5.13748681640625 0.17249999999999965 L 4.90948681640625 0.7664999999999997 Q 4.867486816406251 0.8774999999999997 4.868236816406251 0.9344999999999997 Q 4.868986816406251 0.9914999999999997 4.90498681640625 1.0117499999999997 Q 4.940986816406251 1.0319999999999998 5.00098681640625 1.0349999999999997 L 5.00098681640625 1.0649999999999997 Q 4.95148681640625 1.0619999999999998 4.90648681640625 1.0612499999999998 Q 4.86148681640625 1.0604999999999998 4.81498681640625 1.0604999999999998 Q 4.781986816406251 1.0604999999999998 4.752736816406251 1.0612499999999998 Q 4.7234868164062505 1.0619999999999998 4.7009868164062505 1.0649999999999997 L 4.7009868164062505 1.0349999999999997 Q 4.732486816406251 1.0289999999999997 4.76548681640625 0.9944999999999997 Q 4.798486816406251 0.9599999999999997 4.82998681640625 0.8774999999999997 L 5.171986816406251 -2.220446049250313e-16 Q 5.195986816406251 0.0014999999999996128 5.223736816406251 0.0014999999999996128 Q 5.251486816406251 0.0014999999999996128 5.27548681640625 -2.220446049250313e-16 M 5.3804868164062505 0.6329999999999998 L 5.3804868164062505 0.6629999999999997 L 4.93348681640625 0.6629999999999997 L 4.94848681640625 0.6329999999999998 L 5.3804868164062505 0.6329999999999998 M 6.633013183593751 0.0029999999999996696 L 6.633013183593751 0.032999999999999696 Q 6.6000131835937506 0.04499999999999971 6.563263183593751 0.08549999999999969 Q 6.52651318359375 0.12599999999999967 6.49501318359375 0.2114999999999997 L 6.178513183593751 1.0679999999999996 Q 6.16651318359375 1.0664999999999998 6.1530131835937505 1.0664999999999998 Q 6.139513183593751 1.0664999999999998 6.12601318359375 1.0664999999999998 Q 6.114013183593751 1.0664999999999998 6.10051318359375 1.0664999999999998 Q 6.087013183593751 1.0664999999999998 6.07501318359375 1.0679999999999996 L 5.692513183593751 0.12899999999999967 Q 5.671513183593751 0.07499999999999973 5.646013183593751 0.05474999999999963 Q 5.620513183593751 0.03449999999999975 5.598013183593751 0.032999999999999696 L 5.598013183593751 0.0029999999999996696 Q 5.643013183593751 0.0044999999999997264 5.70376318359375 0.005999999999999783 Q 5.764513183593751 0.007499999999999618 5.8260131835937505 0.007499999999999618 Q 5.8950131835937505 0.007499999999999618 5.955763183593751 0.005999999999999783 Q 6.016513183593751 0.0044999999999997264 6.05401318359375 0.0029999999999996696 L 6.05401318359375 0.032999999999999696 Q 5.98051318359375 0.03599999999999981 5.95801318359375 0.057749999999999746 Q 5.93551318359375 0.07949999999999968 5.9670131835937505 0.1589999999999997 L 6.24001318359375 0.8534999999999997 L 6.208513183593751 0.8909999999999997 L 6.415513183593751 0.33299999999999974 Q 6.45601318359375 0.2204999999999997 6.4575131835937505 0.1559999999999997 Q 6.4590131835937505 0.09149999999999969 6.426013183593751 0.06299999999999972 Q 6.393013183593751 0.03449999999999975 6.331513183593751 0.032999999999999696 L 6.331513183593751 0.0029999999999996696 Q 6.38251318359375 0.0044999999999997264 6.42751318359375 0.005999999999999783 Q 6.472513183593751 0.007499999999999618 6.519013183593751 0.007499999999999618 Q 6.5520131835937505 0.007499999999999618 6.581263183593751 0.005999999999999783 Q 6.610513183593751 0.0044999999999997264 6.633013183593751 0.0029999999999996696" fill="#404040" fill-rule="nonzero"></path></g><g><path d=" M 0.40575 1.4207249999999996 Q 0.40275 1.4469749999999995 0.401625 1.4717249999999995 Q 0.4005 1.4964749999999996 0.4005 1.5092249999999994 Q 0.4005 1.5227249999999994 0.40125 1.5350999999999995 Q 0.402 1.5474749999999995 0.40275 1.5557249999999994 L 0.3855 1.5557249999999994 Q 0.381 1.5114749999999995 0.37275 1.4855999999999994 Q 0.3645 1.4597249999999995 0.344625 1.4488499999999995 Q 0.32475 1.4379749999999993 0.28500000000000003 1.4379749999999993 L 0.22275 1.4379749999999993 Q 0.19725 1.4379749999999993 0.184125 1.4420999999999995 Q 0.171 1.4462249999999994 0.1665 1.4593499999999995 Q 0.162 1.4724749999999995 0.162 1.5002249999999995 L 0.162 1.8722249999999996 Q 0.162 1.8992249999999995 0.1665 1.9127249999999996 Q 0.171 1.9262249999999994 0.184125 1.9303499999999996 Q 0.19725 1.9344749999999995 0.22275 1.9344749999999995 L 0.2775 1.9344749999999995 Q 0.32475 1.9344749999999995 0.349125 1.9217249999999995 Q 0.3735 1.9089749999999994 0.384375 1.8800999999999994 Q 0.39525 1.8512249999999995 0.4005 1.8017249999999996 L 0.41775 1.8017249999999996 Q 0.41550000000000004 1.8219749999999995 0.41550000000000004 1.8557249999999994 Q 0.41550000000000004 1.8699749999999995 0.416625 1.8965999999999994 Q 0.41775 1.9232249999999995 0.42075 1.9517249999999995 Q 0.3825 1.9502249999999994 0.3345 1.9498499999999994 Q 0.28650000000000003 1.9494749999999994 0.249 1.9494749999999994 Q 0.2325 1.9494749999999994 0.206625 1.9494749999999994 Q 0.18075 1.9494749999999994 0.15075 1.9498499999999994 Q 0.12075 1.9502249999999994 0.09 1.9505999999999994 Q 0.059250000000000004 1.9509749999999995 0.0315 1.9517249999999995 L 0.0315 1.9367249999999996 Q 0.057 1.9352249999999995 0.070125 1.9307249999999996 Q 0.08325 1.9262249999999994 0.08775000000000001 1.9127249999999996 Q 0.09225 1.8992249999999995 0.09225 1.8722249999999996 L 0.09225 1.5002249999999995 Q 0.09225 1.4724749999999995 0.08775000000000001 1.4593499999999995 Q 0.08325 1.4462249999999994 0.070125 1.4413499999999995 Q 0.057 1.4364749999999995 0.0315 1.4357249999999995 L 0.0315 1.4207249999999996 Q 0.059250000000000004 1.4214749999999996 0.09 1.4218499999999996 Q 0.12075 1.4222249999999996 0.15075 1.4225999999999996 Q 0.18075 1.4229749999999994 0.206625 1.4229749999999994 Q 0.2325 1.4229749999999994 0.249 1.4229749999999994 Q 0.28350000000000003 1.4229749999999994 0.327375 1.4225999999999996 Q 0.37125 1.4222249999999996 0.40575 1.4207249999999996 M 0.27675 1.6772249999999995 Q 0.27675 1.6772249999999995 0.27675 1.6847249999999994 Q 0.27675 1.6922249999999994 0.27675 1.6922249999999994 L 0.1395 1.6922249999999994 Q 0.1395 1.6922249999999994 0.1395 1.6847249999999994 Q 0.1395 1.6772249999999995 0.1395 1.6772249999999995 L 0.27675 1.6772249999999995 M 0.2985 1.5782249999999995 Q 0.2955 1.6209749999999996 0.295875 1.6434749999999996 Q 0.29625 1.6659749999999995 0.29625 1.6847249999999994 Q 0.29625 1.7034749999999994 0.297 1.7259749999999996 Q 0.29775 1.7484749999999996 0.30075 1.7912249999999994 L 0.28350000000000003 1.7912249999999994 Q 0.2805 1.7672249999999994 0.276375 1.7443499999999994 Q 0.27225 1.7214749999999994 0.258375 1.7068499999999995 Q 0.2445 1.6922249999999994 0.2115 1.6922249999999994 L 0.2115 1.6772249999999995 Q 0.23625000000000002 1.6772249999999995 0.249375 1.6670999999999996 Q 0.2625 1.6569749999999994 0.2685 1.6412249999999995 Q 0.2745 1.6254749999999996 0.27675 1.6085999999999996 Q 0.279 1.5917249999999994 0.28125 1.5782249999999995 L 0.2985 1.5782249999999995 M 0.9600065917968751 1.4207249999999996 L 0.9600065917968751 1.4357249999999995 Q 0.9345065917968751 1.4364749999999995 0.9213815917968751 1.4432249999999995 Q 0.908256591796875 1.4499749999999993 0.9037565917968751 1.4649749999999995 Q 0.8992565917968751 1.4799749999999996 0.8992565917968751 1.5077249999999995 L 0.8992565917968751 1.9554749999999994 Q 0.8947565917968751 1.9554749999999994 0.890631591796875 1.9554749999999994 Q 0.8865065917968751 1.9554749999999994 0.882006591796875 1.9554749999999994 L 0.5670065917968751 1.4687249999999996 L 0.5670065917968751 1.8647249999999995 Q 0.5670065917968751 1.8917249999999994 0.571881591796875 1.9070999999999996 Q 0.576756591796875 1.9224749999999995 0.591381591796875 1.9288499999999995 Q 0.606006591796875 1.9352249999999995 0.635256591796875 1.9367249999999996 L 0.635256591796875 1.9517249999999995 Q 0.621756591796875 1.9502249999999994 0.6000065917968751 1.9498499999999994 Q 0.578256591796875 1.9494749999999994 0.5587565917968751 1.9494749999999994 Q 0.540006591796875 1.9494749999999994 0.520881591796875 1.9498499999999994 Q 0.501756591796875 1.9502249999999994 0.489006591796875 1.9517249999999995 L 0.489006591796875 1.9367249999999996 Q 0.5145065917968751 1.9352249999999995 0.527631591796875 1.9288499999999995 Q 0.5407565917968751 1.9224749999999995 0.545256591796875 1.9070999999999996 Q 0.549756591796875 1.8917249999999994 0.549756591796875 1.8647249999999995 L 0.549756591796875 1.5002249999999995 Q 0.549756591796875 1.4724749999999995 0.545256591796875 1.4593499999999995 Q 0.5407565917968751 1.4462249999999994 0.527631591796875 1.4413499999999995 Q 0.5145065917968751 1.4364749999999995 0.489006591796875 1.4357249999999995 L 0.489006591796875 1.4207249999999996 Q 0.501756591796875 1.4214749999999996 0.520881591796875 1.4222249999999996 Q 0.540006591796875 1.4229749999999994 0.5587565917968751 1.4229749999999994 Q 0.575256591796875 1.4229749999999994 0.5902565917968751 1.4222249999999996 Q 0.6052565917968751 1.4214749999999996 0.6172565917968751 1.4207249999999996 L 0.882006591796875 1.8287249999999995 L 0.882006591796875 1.5077249999999995 Q 0.882006591796875 1.4799749999999996 0.877131591796875 1.4649749999999995 Q 0.872256591796875 1.4499749999999993 0.8576315917968751 1.4432249999999995 Q 0.843006591796875 1.4364749999999995 0.813756591796875 1.4357249999999995 L 0.813756591796875 1.4207249999999996 Q 0.827256591796875 1.4214749999999996 0.849381591796875 1.4222249999999996 Q 0.8715065917968751 1.4229749999999994 0.890256591796875 1.4229749999999994 Q 0.9097565917968751 1.4229749999999994 0.928881591796875 1.4222249999999996 Q 0.948006591796875 1.4214749999999996 0.9600065917968751 1.4207249999999996 M 1.264487548828125 1.4102249999999996 Q 1.3132375488281252 1.4102249999999996 1.343237548828125 1.4248499999999995 Q 1.373237548828125 1.4394749999999994 1.399487548828125 1.4589749999999995 Q 1.409237548828125 1.4664749999999995 1.414487548828125 1.4664749999999995 Q 1.428737548828125 1.4664749999999995 1.433237548828125 1.4207249999999996 L 1.450487548828125 1.4207249999999996 Q 1.448987548828125 1.4484749999999995 1.448237548828125 1.4882249999999995 Q 1.4474875488281251 1.5279749999999994 1.4474875488281251 1.5932249999999994 L 1.4302375488281251 1.5932249999999994 Q 1.424987548828125 1.5617249999999996 1.417487548828125 1.5324749999999994 Q 1.409987548828125 1.5032249999999996 1.392737548828125 1.4822249999999995 Q 1.3709875488281251 1.4544749999999995 1.3357375488281251 1.4390999999999994 Q 1.3004875488281251 1.4237249999999995 1.262987548828125 1.4237249999999995 Q 1.225487548828125 1.4237249999999995 1.1951125488281251 1.4420999999999995 Q 1.164737548828125 1.4604749999999995 1.1429875488281251 1.4949749999999995 Q 1.121237548828125 1.5294749999999995 1.109612548828125 1.5778499999999995 Q 1.097987548828125 1.6262249999999994 1.097987548828125 1.6869749999999994 Q 1.097987548828125 1.8219749999999995 1.141487548828125 1.8845999999999994 Q 1.1849875488281252 1.9472249999999995 1.276487548828125 1.9472249999999995 Q 1.303487548828125 1.9472249999999995 1.323362548828125 1.9393499999999995 Q 1.343237548828125 1.9314749999999994 1.354487548828125 1.9239749999999995 Q 1.368737548828125 1.9142249999999994 1.3724875488281252 1.9055999999999995 Q 1.376237548828125 1.8969749999999994 1.376237548828125 1.8827249999999995 L 1.376237548828125 1.8107249999999995 Q 1.376237548828125 1.7799749999999994 1.370237548828125 1.7649749999999995 Q 1.364237548828125 1.7499749999999994 1.3481125488281251 1.7447249999999994 Q 1.331987548828125 1.7394749999999994 1.3004875488281251 1.7387249999999994 L 1.3004875488281251 1.7237249999999995 Q 1.3139875488281252 1.7244749999999995 1.331987548828125 1.7248499999999996 Q 1.349987548828125 1.7252249999999996 1.369862548828125 1.7255999999999996 Q 1.389737548828125 1.7259749999999996 1.4062375488281251 1.7259749999999996 Q 1.4309875488281252 1.7259749999999996 1.450862548828125 1.7252249999999996 Q 1.4707375488281251 1.7244749999999995 1.484237548828125 1.7237249999999995 L 1.484237548828125 1.7387249999999994 Q 1.467737548828125 1.7394749999999994 1.4594875488281251 1.7439749999999994 Q 1.451237548828125 1.7484749999999996 1.448612548828125 1.7619749999999994 Q 1.445987548828125 1.7754749999999995 1.445987548828125 1.8032249999999994 L 1.445987548828125 1.9517249999999995 L 1.4309875488281252 1.9517249999999995 Q 1.4302375488281251 1.9389749999999994 1.425362548828125 1.9239749999999995 Q 1.420487548828125 1.9089749999999994 1.410737548828125 1.9089749999999994 Q 1.4062375488281251 1.9089749999999994 1.401737548828125 1.9112249999999995 Q 1.397237548828125 1.9134749999999996 1.385987548828125 1.9217249999999995 Q 1.3612375488281252 1.9404749999999995 1.333487548828125 1.9513499999999995 Q 1.305737548828125 1.9622249999999994 1.268987548828125 1.9622249999999994 Q 1.191737548828125 1.9622249999999994 1.1366125488281251 1.9303499999999996 Q 1.081487548828125 1.8984749999999995 1.052237548828125 1.8384749999999994 Q 1.022987548828125 1.7784749999999994 1.022987548828125 1.6952249999999995 Q 1.022987548828125 1.6074749999999995 1.0544875488281251 1.5437249999999993 Q 1.085987548828125 1.4799749999999996 1.140362548828125 1.4450999999999996 Q 1.194737548828125 1.4102249999999996 1.264487548828125 1.4102249999999996 M 1.73323974609375 1.4207249999999996 L 1.73323974609375 1.4357249999999995 Q 1.70773974609375 1.4364749999999995 1.6946147460937502 1.4413499999999995 Q 1.6814897460937501 1.4462249999999994 1.6769897460937502 1.4593499999999995 Q 1.67248974609375 1.4724749999999995 1.67248974609375 1.5002249999999995 L 1.67248974609375 1.8722249999999996 Q 1.67248974609375 1.8992249999999995 1.6769897460937502 1.9127249999999996 Q 1.6814897460937501 1.9262249999999994 1.6946147460937502 1.9307249999999996 Q 1.70773974609375 1.9352249999999995 1.73323974609375 1.9367249999999996 L 1.73323974609375 1.9517249999999995 Q 1.71598974609375 1.9502249999999994 1.69011474609375 1.9498499999999994 Q 1.6642397460937501 1.9494749999999994 1.63798974609375 1.9494749999999994 Q 1.60873974609375 1.9494749999999994 1.5832397460937502 1.9498499999999994 Q 1.55773974609375 1.9502249999999994 1.5419897460937502 1.9517249999999995 L 1.5419897460937502 1.9367249999999996 Q 1.56748974609375 1.9352249999999995 1.58061474609375 1.9307249999999996 Q 1.5937397460937501 1.9262249999999994 1.59823974609375 1.9127249999999996 Q 1.60273974609375 1.8992249999999995 1.60273974609375 1.8722249999999996 L 1.60273974609375 1.5002249999999995 Q 1.60273974609375 1.4724749999999995 1.59823974609375 1.4593499999999995 Q 1.5937397460937501 1.4462249999999994 1.58061474609375 1.4413499999999995 Q 1.56748974609375 1.4364749999999995 1.5419897460937502 1.4357249999999995 L 1.5419897460937502 1.4207249999999996 Q 1.55773974609375 1.4214749999999996 1.5832397460937502 1.4222249999999996 Q 1.60873974609375 1.4229749999999994 1.63798974609375 1.4229749999999994 Q 1.6642397460937501 1.4229749999999994 1.69011474609375 1.4222249999999996 Q 1.71598974609375 1.4214749999999996 1.73323974609375 1.4207249999999996 M 2.267981689453125 1.4207249999999996 L 2.267981689453125 1.4357249999999995 Q 2.242481689453125 1.4364749999999995 2.229356689453125 1.4432249999999995 Q 2.2162316894531253 1.4499749999999993 2.211731689453125 1.4649749999999995 Q 2.207231689453125 1.4799749999999996 2.207231689453125 1.5077249999999995 L 2.207231689453125 1.9554749999999994 Q 2.2027316894531253 1.9554749999999994 2.198606689453125 1.9554749999999994 Q 2.194481689453125 1.9554749999999994 2.189981689453125 1.9554749999999994 L 1.874981689453125 1.4687249999999996 L 1.874981689453125 1.8647249999999995 Q 1.874981689453125 1.8917249999999994 1.879856689453125 1.9070999999999996 Q 1.8847316894531252 1.9224749999999995 1.899356689453125 1.9288499999999995 Q 1.9139816894531252 1.9352249999999995 1.9432316894531252 1.9367249999999996 L 1.9432316894531252 1.9517249999999995 Q 1.9297316894531251 1.9502249999999994 1.9079816894531252 1.9498499999999994 Q 1.886231689453125 1.9494749999999994 1.8667316894531252 1.9494749999999994 Q 1.8479816894531251 1.9494749999999994 1.828856689453125 1.9498499999999994 Q 1.809731689453125 1.9502249999999994 1.7969816894531252 1.9517249999999995 L 1.7969816894531252 1.9367249999999996 Q 1.822481689453125 1.9352249999999995 1.835606689453125 1.9288499999999995 Q 1.8487316894531252 1.9224749999999995 1.853231689453125 1.9070999999999996 Q 1.857731689453125 1.8917249999999994 1.857731689453125 1.8647249999999995 L 1.857731689453125 1.5002249999999995 Q 1.857731689453125 1.4724749999999995 1.853231689453125 1.4593499999999995 Q 1.8487316894531252 1.4462249999999994 1.835606689453125 1.4413499999999995 Q 1.822481689453125 1.4364749999999995 1.7969816894531252 1.4357249999999995 L 1.7969816894531252 1.4207249999999996 Q 1.809731689453125 1.4214749999999996 1.828856689453125 1.4222249999999996 Q 1.8479816894531251 1.4229749999999994 1.8667316894531252 1.4229749999999994 Q 1.8832316894531251 1.4229749999999994 1.898231689453125 1.4222249999999996 Q 1.9132316894531252 1.4214749999999996 1.9252316894531252 1.4207249999999996 L 2.189981689453125 1.8287249999999995 L 2.189981689453125 1.5077249999999995 Q 2.189981689453125 1.4799749999999996 2.185106689453125 1.4649749999999995 Q 2.1802316894531253 1.4499749999999993 2.165606689453125 1.4432249999999995 Q 2.150981689453125 1.4364749999999995 2.1217316894531253 1.4357249999999995 L 2.1217316894531253 1.4207249999999996 Q 2.135231689453125 1.4214749999999996 2.1573566894531253 1.4222249999999996 Q 2.1794816894531253 1.4229749999999994 2.198231689453125 1.4229749999999994 Q 2.217731689453125 1.4229749999999994 2.236856689453125 1.4222249999999996 Q 2.255981689453125 1.4214749999999996 2.267981689453125 1.4207249999999996 M 2.7014769287109375 1.4207249999999996 Q 2.698476928710938 1.4469749999999995 2.6973519287109378 1.4717249999999995 Q 2.6962269287109377 1.4964749999999996 2.6962269287109377 1.5092249999999994 Q 2.6962269287109377 1.5227249999999994 2.6969769287109377 1.5350999999999995 Q 2.6977269287109378 1.5474749999999995 2.698476928710938 1.5557249999999994 L 2.6812269287109376 1.5557249999999994 Q 2.676726928710938 1.5114749999999995 2.6684769287109376 1.4855999999999994 Q 2.6602269287109377 1.4597249999999995 2.640351928710938 1.4488499999999995 Q 2.6204769287109375 1.4379749999999993 2.580726928710938 1.4379749999999993 L 2.5184769287109376 1.4379749999999993 Q 2.4929769287109376 1.4379749999999993 2.4798519287109375 1.4420999999999995 Q 2.4667269287109375 1.4462249999999994 2.4622269287109377 1.4593499999999995 Q 2.4577269287109376 1.4724749999999995 2.4577269287109376 1.5002249999999995 L 2.4577269287109376 1.8722249999999996 Q 2.4577269287109376 1.8992249999999995 2.4622269287109377 1.9127249999999996 Q 2.4667269287109375 1.9262249999999994 2.4798519287109375 1.9303499999999996 Q 2.4929769287109376 1.9344749999999995 2.5184769287109376 1.9344749999999995 L 2.5732269287109375 1.9344749999999995 Q 2.6204769287109375 1.9344749999999995 2.6448519287109375 1.9217249999999995 Q 2.6692269287109376 1.9089749999999994 2.6801019287109376 1.8800999999999994 Q 2.6909769287109375 1.8512249999999995 2.6962269287109377 1.8017249999999996 L 2.7134769287109375 1.8017249999999996 Q 2.711226928710938 1.8219749999999995 2.711226928710938 1.8557249999999994 Q 2.711226928710938 1.8699749999999995 2.7123519287109374 1.8965999999999994 Q 2.7134769287109375 1.9232249999999995 2.7164769287109376 1.9517249999999995 Q 2.6782269287109375 1.9502249999999994 2.630226928710938 1.9498499999999994 Q 2.582226928710938 1.9494749999999994 2.5447269287109378 1.9494749999999994 Q 2.5282269287109376 1.9494749999999994 2.5023519287109375 1.9494749999999994 Q 2.476476928710938 1.9494749999999994 2.4464769287109376 1.9498499999999994 Q 2.4164769287109378 1.9502249999999994 2.3857269287109375 1.9505999999999994 Q 2.3549769287109377 1.9509749999999995 2.3272269287109375 1.9517249999999995 L 2.3272269287109375 1.9367249999999996 Q 2.3527269287109376 1.9352249999999995 2.3658519287109376 1.9307249999999996 Q 2.3789769287109377 1.9262249999999994 2.383476928710938 1.9127249999999996 Q 2.3879769287109376 1.8992249999999995 2.3879769287109376 1.8722249999999996 L 2.3879769287109376 1.5002249999999995 Q 2.3879769287109376 1.4724749999999995 2.383476928710938 1.4593499999999995 Q 2.3789769287109377 1.4462249999999994 2.3658519287109376 1.4413499999999995 Q 2.3527269287109376 1.4364749999999995 2.3272269287109375 1.4357249999999995 L 2.3272269287109375 1.4207249999999996 Q 2.3549769287109377 1.4214749999999996 2.3857269287109375 1.4218499999999996 Q 2.4164769287109378 1.4222249999999996 2.4464769287109376 1.4225999999999996 Q 2.476476928710938 1.4229749999999994 2.5023519287109375 1.4229749999999994 Q 2.5282269287109376 1.4229749999999994 2.5447269287109378 1.4229749999999994 Q 2.5792269287109377 1.4229749999999994 2.6231019287109376 1.4225999999999996 Q 2.6669769287109375 1.4222249999999996 2.7014769287109375 1.4207249999999996 M 2.5724769287109375 1.6772249999999995 Q 2.5724769287109375 1.6772249999999995 2.5724769287109375 1.6847249999999994 Q 2.5724769287109375 1.6922249999999994 2.5724769287109375 1.6922249999999994 L 2.4352269287109376 1.6922249999999994 Q 2.4352269287109376 1.6922249999999994 2.4352269287109376 1.6847249999999994 Q 2.4352269287109376 1.6772249999999995 2.4352269287109376 1.6772249999999995 L 2.5724769287109375 1.6772249999999995 M 2.5942269287109374 1.5782249999999995 Q 2.5912269287109377 1.6209749999999996 2.5916019287109378 1.6434749999999996 Q 2.5919769287109378 1.6659749999999995 2.5919769287109378 1.6847249999999994 Q 2.5919769287109378 1.7034749999999994 2.592726928710938 1.7259749999999996 Q 2.593476928710938 1.7484749999999996 2.5964769287109375 1.7912249999999994 L 2.5792269287109377 1.7912249999999994 Q 2.5762269287109376 1.7672249999999994 2.5721019287109375 1.7443499999999994 Q 2.5679769287109377 1.7214749999999994 2.5541019287109377 1.7068499999999995 Q 2.5402269287109376 1.6922249999999994 2.5072269287109377 1.6922249999999994 L 2.5072269287109377 1.6772249999999995 Q 2.5319769287109377 1.6772249999999995 2.5451019287109378 1.6670999999999996 Q 2.558226928710938 1.6569749999999994 2.5642269287109376 1.6412249999999995 Q 2.570226928710938 1.6254749999999996 2.5724769287109375 1.6085999999999996 Q 2.5747269287109376 1.5917249999999994 2.5769769287109376 1.5782249999999995 L 2.5942269287109374 1.5782249999999995 M 3.1589835205078125 1.4207249999999996 Q 3.155983520507813 1.4469749999999995 3.154858520507813 1.4717249999999995 Q 3.1537335205078127 1.4964749999999996 3.1537335205078127 1.5092249999999994 Q 3.1537335205078127 1.5227249999999994 3.1544835205078128 1.5350999999999995 Q 3.155233520507813 1.5474749999999995 3.155983520507813 1.5557249999999994 L 3.1387335205078126 1.5557249999999994 Q 3.134233520507813 1.5114749999999995 3.1259835205078126 1.4855999999999994 Q 3.1177335205078127 1.4597249999999995 3.097858520507813 1.4488499999999995 Q 3.0779835205078125 1.4379749999999993 3.038233520507813 1.4379749999999993 L 2.9759835205078127 1.4379749999999993 Q 2.9504835205078126 1.4379749999999993 2.9373585205078125 1.4420999999999995 Q 2.9242335205078125 1.4462249999999994 2.9197335205078128 1.4593499999999995 Q 2.9152335205078126 1.4724749999999995 2.9152335205078126 1.5002249999999995 L 2.9152335205078126 1.8722249999999996 Q 2.9152335205078126 1.8992249999999995 2.9197335205078128 1.9127249999999996 Q 2.9242335205078125 1.9262249999999994 2.9373585205078125 1.9303499999999996 Q 2.9504835205078126 1.9344749999999995 2.9759835205078127 1.9344749999999995 L 3.0307335205078125 1.9344749999999995 Q 3.0779835205078125 1.9344749999999995 3.1023585205078126 1.9217249999999995 Q 3.1267335205078126 1.9089749999999994 3.1376085205078126 1.8800999999999994 Q 3.1484835205078125 1.8512249999999995 3.1537335205078127 1.8017249999999996 L 3.1709835205078125 1.8017249999999996 Q 3.168733520507813 1.8219749999999995 3.168733520507813 1.8557249999999994 Q 3.168733520507813 1.8699749999999995 3.1698585205078125 1.8965999999999994 Q 3.1709835205078125 1.9232249999999995 3.1739835205078126 1.9517249999999995 Q 3.1357335205078125 1.9502249999999994 3.087733520507813 1.9498499999999994 Q 3.039733520507813 1.9494749999999994 3.002233520507813 1.9494749999999994 Q 2.9857335205078126 1.9494749999999994 2.9598585205078125 1.9494749999999994 Q 2.933983520507813 1.9494749999999994 2.9039835205078126 1.9498499999999994 Q 2.873983520507813 1.9502249999999994 2.8432335205078125 1.9505999999999994 Q 2.8124835205078127 1.9509749999999995 2.7847335205078125 1.9517249999999995 L 2.7847335205078125 1.9367249999999996 Q 2.8102335205078126 1.9352249999999995 2.8233585205078127 1.9307249999999996 Q 2.8364835205078127 1.9262249999999994 2.840983520507813 1.9127249999999996 Q 2.8454835205078126 1.8992249999999995 2.8454835205078126 1.8722249999999996 L 2.8454835205078126 1.5002249999999995 Q 2.8454835205078126 1.4724749999999995 2.840983520507813 1.4593499999999995 Q 2.8364835205078127 1.4462249999999994 2.8233585205078127 1.4413499999999995 Q 2.8102335205078126 1.4364749999999995 2.7847335205078125 1.4357249999999995 L 2.7847335205078125 1.4207249999999996 Q 2.8124835205078127 1.4214749999999996 2.8432335205078125 1.4218499999999996 Q 2.873983520507813 1.4222249999999996 2.9039835205078126 1.4225999999999996 Q 2.933983520507813 1.4229749999999994 2.9598585205078125 1.4229749999999994 Q 2.9857335205078126 1.4229749999999994 3.002233520507813 1.4229749999999994 Q 3.0367335205078128 1.4229749999999994 3.0806085205078126 1.4225999999999996 Q 3.1244835205078125 1.4222249999999996 3.1589835205078125 1.4207249999999996 M 3.0299835205078125 1.6772249999999995 Q 3.0299835205078125 1.6772249999999995 3.0299835205078125 1.6847249999999994 Q 3.0299835205078125 1.6922249999999994 3.0299835205078125 1.6922249999999994 L 2.8927335205078126 1.6922249999999994 Q 2.8927335205078126 1.6922249999999994 2.8927335205078126 1.6847249999999994 Q 2.8927335205078126 1.6772249999999995 2.8927335205078126 1.6772249999999995 L 3.0299835205078125 1.6772249999999995 M 3.0517335205078124 1.5782249999999995 Q 3.0487335205078128 1.6209749999999996 3.049108520507813 1.6434749999999996 Q 3.049483520507813 1.6659749999999995 3.049483520507813 1.6847249999999994 Q 3.049483520507813 1.7034749999999994 3.050233520507813 1.7259749999999996 Q 3.050983520507813 1.7484749999999996 3.0539835205078125 1.7912249999999994 L 3.0367335205078128 1.7912249999999994 Q 3.0337335205078126 1.7672249999999994 3.0296085205078125 1.7443499999999994 Q 3.0254835205078128 1.7214749999999994 3.0116085205078127 1.7068499999999995 Q 2.9977335205078126 1.6922249999999994 2.9647335205078127 1.6922249999999994 L 2.9647335205078127 1.6772249999999995 Q 2.9894835205078127 1.6772249999999995 3.002608520507813 1.6670999999999996 Q 3.015733520507813 1.6569749999999994 3.0217335205078126 1.6412249999999995 Q 3.027733520507813 1.6254749999999996 3.0299835205078125 1.6085999999999996 Q 3.0322335205078126 1.5917249999999994 3.0344835205078127 1.5782249999999995 L 3.0517335205078124 1.5782249999999995 M 3.2422401123046876 1.4207249999999996 Q 3.2579901123046877 1.4214749999999996 3.283490112304688 1.4222249999999996 Q 3.308990112304688 1.4229749999999994 3.333740112304688 1.4229749999999994 Q 3.3689901123046875 1.4229749999999994 3.401240112304688 1.4222249999999996 Q 3.4334901123046877 1.4214749999999996 3.4469901123046878 1.4214749999999996 Q 3.507740112304688 1.4214749999999996 3.5478651123046876 1.4387249999999994 Q 3.587990112304688 1.4559749999999996 3.6078651123046876 1.4855999999999994 Q 3.6277401123046875 1.5152249999999996 3.6277401123046875 1.5519749999999994 Q 3.6277401123046875 1.5744749999999994 3.6187401123046876 1.5999749999999995 Q 3.6097401123046877 1.6254749999999996 3.5876151123046878 1.6479749999999995 Q 3.565490112304688 1.6704749999999995 3.5272401123046877 1.6850999999999994 Q 3.4889901123046876 1.6997249999999995 3.4304901123046876 1.6997249999999995 L 3.3584901123046875 1.6997249999999995 L 3.3584901123046875 1.6847249999999994 L 3.4229901123046877 1.6847249999999994 Q 3.4762401123046875 1.6847249999999994 3.5043651123046877 1.6678499999999996 Q 3.5324901123046875 1.6509749999999994 3.542615112304688 1.6228499999999995 Q 3.552740112304688 1.5947249999999995 3.552740112304688 1.5602249999999995 Q 3.552740112304688 1.5009749999999995 3.5246151123046876 1.4683499999999996 Q 3.496490112304688 1.4357249999999995 3.4282401123046875 1.4357249999999995 Q 3.3937401123046875 1.4357249999999995 3.3832401123046876 1.4484749999999995 Q 3.3727401123046876 1.4612249999999996 3.3727401123046876 1.5002249999999995 L 3.3727401123046876 1.8722249999999996 Q 3.3727401123046876 1.8992249999999995 3.377240112304688 1.9127249999999996 Q 3.3817401123046875 1.9262249999999994 3.3948651123046876 1.9307249999999996 Q 3.4079901123046876 1.9352249999999995 3.4334901123046877 1.9367249999999996 L 3.4334901123046877 1.9517249999999995 Q 3.4162401123046875 1.9502249999999994 3.390365112304688 1.9498499999999994 Q 3.3644901123046878 1.9494749999999994 3.3382401123046876 1.9494749999999994 Q 3.308990112304688 1.9494749999999994 3.283490112304688 1.9498499999999994 Q 3.2579901123046877 1.9502249999999994 3.2422401123046876 1.9517249999999995 L 3.2422401123046876 1.9367249999999996 Q 3.2677401123046876 1.9352249999999995 3.2808651123046877 1.9307249999999996 Q 3.2939901123046877 1.9262249999999994 3.298490112304688 1.9127249999999996 Q 3.3029901123046876 1.8992249999999995 3.3029901123046876 1.8722249999999996 L 3.3029901123046876 1.5002249999999995 Q 3.3029901123046876 1.4724749999999995 3.298490112304688 1.4593499999999995 Q 3.2939901123046877 1.4462249999999994 3.2808651123046877 1.4413499999999995 Q 3.2677401123046876 1.4364749999999995 3.2422401123046876 1.4357249999999995 L 3.2422401123046876 1.4207249999999996 M 3.3614901123046876 1.6869749999999994 Q 3.401990112304688 1.6884749999999995 3.425240112304688 1.6903499999999996 Q 3.448490112304688 1.6922249999999994 3.4631151123046875 1.6937249999999995 Q 3.4777401123046876 1.6952249999999995 3.4912401123046877 1.6974749999999994 Q 3.541490112304688 1.7057249999999995 3.5636151123046877 1.7278499999999994 Q 3.5857401123046877 1.7499749999999994 3.5962401123046877 1.7964749999999996 L 3.614990112304688 1.8729749999999994 Q 3.6224901123046878 1.9059749999999995 3.6303651123046876 1.9205999999999994 Q 3.638240112304688 1.9352249999999995 3.6547401123046876 1.9344749999999995 Q 3.6674901123046877 1.9337249999999995 3.6761151123046876 1.9262249999999994 Q 3.684740112304688 1.9187249999999996 3.694490112304688 1.9059749999999995 L 3.705740112304688 1.9142249999999994 Q 3.6899901123046877 1.9374749999999994 3.673115112304688 1.9498499999999994 Q 3.6562401123046877 1.9622249999999994 3.625490112304688 1.9622249999999994 Q 3.5977401123046877 1.9622249999999994 3.576740112304688 1.9457249999999995 Q 3.555740112304688 1.9292249999999995 3.545240112304688 1.8812249999999995 L 3.5287401123046878 1.8062249999999995 Q 3.521990112304688 1.7739749999999994 3.5133651123046876 1.7503499999999994 Q 3.5047401123046877 1.7267249999999994 3.4893651123046876 1.7132249999999996 Q 3.473990112304688 1.6997249999999995 3.4439901123046877 1.6997249999999995 L 3.3629901123046877 1.6997249999999995 L 3.3614901123046876 1.6869749999999994 M 3.9202478027343752 1.4207249999999996 L 3.9202478027343752 1.4357249999999995 Q 3.894747802734375 1.4364749999999995 3.881622802734375 1.4413499999999995 Q 3.868497802734375 1.4462249999999994 3.8639978027343753 1.4593499999999995 Q 3.859497802734375 1.4724749999999995 3.859497802734375 1.5002249999999995 L 3.859497802734375 1.8722249999999996 Q 3.859497802734375 1.8992249999999995 3.8639978027343753 1.9127249999999996 Q 3.868497802734375 1.9262249999999994 3.881622802734375 1.9307249999999996 Q 3.894747802734375 1.9352249999999995 3.9202478027343752 1.9367249999999996 L 3.9202478027343752 1.9517249999999995 Q 3.902997802734375 1.9502249999999994 3.8771228027343754 1.9498499999999994 Q 3.8512478027343753 1.9494749999999994 3.824997802734375 1.9494749999999994 Q 3.7957478027343754 1.9494749999999994 3.7702478027343753 1.9498499999999994 Q 3.7447478027343752 1.9502249999999994 3.728997802734375 1.9517249999999995 L 3.728997802734375 1.9367249999999996 Q 3.754497802734375 1.9352249999999995 3.767622802734375 1.9307249999999996 Q 3.7807478027343753 1.9262249999999994 3.7852478027343754 1.9127249999999996 Q 3.789747802734375 1.8992249999999995 3.789747802734375 1.8722249999999996 L 3.789747802734375 1.5002249999999995 Q 3.789747802734375 1.4724749999999995 3.7852478027343754 1.4593499999999995 Q 3.7807478027343753 1.4462249999999994 3.767622802734375 1.4413499999999995 Q 3.754497802734375 1.4364749999999995 3.728997802734375 1.4357249999999995 L 3.728997802734375 1.4207249999999996 Q 3.7447478027343752 1.4214749999999996 3.7702478027343753 1.4222249999999996 Q 3.7957478027343754 1.4229749999999994 3.824997802734375 1.4229749999999994 Q 3.8512478027343753 1.4229749999999994 3.8771228027343754 1.4222249999999996 Q 3.902997802734375 1.4214749999999996 3.9202478027343752 1.4207249999999996 M 4.454989746093751 1.4207249999999996 L 4.454989746093751 1.4357249999999995 Q 4.429489746093751 1.4364749999999995 4.41636474609375 1.4432249999999995 Q 4.4032397460937505 1.4499749999999993 4.39873974609375 1.4649749999999995 Q 4.39423974609375 1.4799749999999996 4.39423974609375 1.5077249999999995 L 4.39423974609375 1.9554749999999994 Q 4.38973974609375 1.9554749999999994 4.385614746093751 1.9554749999999994 Q 4.3814897460937505 1.9554749999999994 4.37698974609375 1.9554749999999994 L 4.06198974609375 1.4687249999999996 L 4.06198974609375 1.8647249999999995 Q 4.06198974609375 1.8917249999999994 4.06686474609375 1.9070999999999996 Q 4.07173974609375 1.9224749999999995 4.08636474609375 1.9288499999999995 Q 4.1009897460937506 1.9352249999999995 4.13023974609375 1.9367249999999996 L 4.13023974609375 1.9517249999999995 Q 4.11673974609375 1.9502249999999994 4.09498974609375 1.9498499999999994 Q 4.07323974609375 1.9494749999999994 4.0537397460937505 1.9494749999999994 Q 4.03498974609375 1.9494749999999994 4.01586474609375 1.9498499999999994 Q 3.99673974609375 1.9502249999999994 3.98398974609375 1.9517249999999995 L 3.98398974609375 1.9367249999999996 Q 4.009489746093751 1.9352249999999995 4.02261474609375 1.9288499999999995 Q 4.03573974609375 1.9224749999999995 4.04023974609375 1.9070999999999996 Q 4.04473974609375 1.8917249999999994 4.04473974609375 1.8647249999999995 L 4.04473974609375 1.5002249999999995 Q 4.04473974609375 1.4724749999999995 4.04023974609375 1.4593499999999995 Q 4.03573974609375 1.4462249999999994 4.02261474609375 1.4413499999999995 Q 4.009489746093751 1.4364749999999995 3.98398974609375 1.4357249999999995 L 3.98398974609375 1.4207249999999996 Q 3.99673974609375 1.4214749999999996 4.01586474609375 1.4222249999999996 Q 4.03498974609375 1.4229749999999994 4.0537397460937505 1.4229749999999994 Q 4.07023974609375 1.4229749999999994 4.08523974609375 1.4222249999999996 Q 4.1002397460937505 1.4214749999999996 4.11223974609375 1.4207249999999996 L 4.37698974609375 1.8287249999999995 L 4.37698974609375 1.5077249999999995 Q 4.37698974609375 1.4799749999999996 4.37211474609375 1.4649749999999995 Q 4.36723974609375 1.4499749999999993 4.35261474609375 1.4432249999999995 Q 4.337989746093751 1.4364749999999995 4.30873974609375 1.4357249999999995 L 4.30873974609375 1.4207249999999996 Q 4.32223974609375 1.4214749999999996 4.34436474609375 1.4222249999999996 Q 4.36648974609375 1.4229749999999994 4.385239746093751 1.4229749999999994 Q 4.4047397460937505 1.4229749999999994 4.42386474609375 1.4222249999999996 Q 4.44298974609375 1.4214749999999996 4.454989746093751 1.4207249999999996 M 4.759470703125 1.4102249999999996 Q 4.808220703125 1.4102249999999996 4.838220703125001 1.4248499999999995 Q 4.868220703125 1.4394749999999994 4.894470703125 1.4589749999999995 Q 4.9042207031250005 1.4664749999999995 4.909470703125001 1.4664749999999995 Q 4.923720703125 1.4664749999999995 4.9282207031250005 1.4207249999999996 L 4.945470703125 1.4207249999999996 Q 4.943970703125 1.4484749999999995 4.943220703125 1.4882249999999995 Q 4.942470703125 1.5279749999999994 4.942470703125 1.5932249999999994 L 4.925220703125 1.5932249999999994 Q 4.919970703125 1.5617249999999996 4.912470703125 1.5324749999999994 Q 4.9049707031250005 1.5032249999999996 4.887720703125 1.4822249999999995 Q 4.865970703125 1.4544749999999995 4.830720703125 1.4390999999999994 Q 4.795470703125 1.4237249999999995 4.757970703125 1.4237249999999995 Q 4.720470703125001 1.4237249999999995 4.690095703125 1.4420999999999995 Q 4.659720703125 1.4604749999999995 4.637970703125 1.4949749999999995 Q 4.616220703125 1.5294749999999995 4.604595703125001 1.5778499999999995 Q 4.592970703125 1.6262249999999994 4.592970703125 1.6869749999999994 Q 4.592970703125 1.8219749999999995 4.636470703125 1.8845999999999994 Q 4.679970703125 1.9472249999999995 4.771470703125 1.9472249999999995 Q 4.798470703125 1.9472249999999995 4.818345703125 1.9393499999999995 Q 4.838220703125001 1.9314749999999994 4.849470703125 1.9239749999999995 Q 4.863720703125001 1.9142249999999994 4.867470703125 1.9055999999999995 Q 4.871220703125 1.8969749999999994 4.871220703125 1.8827249999999995 L 4.871220703125 1.8107249999999995 Q 4.871220703125 1.7799749999999994 4.865220703125 1.7649749999999995 Q 4.8592207031250005 1.7499749999999994 4.843095703125 1.7447249999999994 Q 4.826970703125 1.7394749999999994 4.795470703125 1.7387249999999994 L 4.795470703125 1.7237249999999995 Q 4.808970703125 1.7244749999999995 4.826970703125 1.7248499999999996 Q 4.844970703125 1.7252249999999996 4.864845703125001 1.7255999999999996 Q 4.884720703125001 1.7259749999999996 4.901220703125 1.7259749999999996 Q 4.925970703125 1.7259749999999996 4.945845703125 1.7252249999999996 Q 4.965720703125 1.7244749999999995 4.979220703125001 1.7237249999999995 L 4.979220703125001 1.7387249999999994 Q 4.962720703125 1.7394749999999994 4.954470703125001 1.7439749999999994 Q 4.946220703125 1.7484749999999996 4.943595703125 1.7619749999999994 Q 4.940970703125 1.7754749999999995 4.940970703125 1.8032249999999994 L 4.940970703125 1.9517249999999995 L 4.925970703125 1.9517249999999995 Q 4.925220703125 1.9389749999999994 4.920345703125 1.9239749999999995 Q 4.915470703125 1.9089749999999994 4.9057207031250005 1.9089749999999994 Q 4.901220703125 1.9089749999999994 4.896720703125 1.9112249999999995 Q 4.892220703125 1.9134749999999996 4.8809707031250005 1.9217249999999995 Q 4.856220703125 1.9404749999999995 4.828470703125 1.9513499999999995 Q 4.800720703125 1.9622249999999994 4.7639707031250005 1.9622249999999994 Q 4.686720703125 1.9622249999999994 4.631595703125 1.9303499999999996 Q 4.5764707031250005 1.8984749999999995 4.547220703125 1.8384749999999994 Q 4.517970703125 1.7784749999999994 4.517970703125 1.6952249999999995 Q 4.517970703125 1.6074749999999995 4.549470703125 1.5437249999999993 Q 4.580970703125001 1.4799749999999996 4.635345703125 1.4450999999999996 Q 4.689720703125 1.4102249999999996 4.759470703125 1.4102249999999996 M 5.848475463867188 1.4207249999999996 L 5.848475463867188 1.4357249999999995 Q 5.834225463867188 1.4387249999999994 5.816975463867188 1.4525999999999994 Q 5.799725463867188 1.4664749999999995 5.789225463867188 1.5009749999999995 L 5.647475463867188 1.9554749999999994 Q 5.645975463867188 1.9554749999999994 5.644475463867188 1.9554749999999994 Q 5.642975463867188 1.9554749999999994 5.641475463867188 1.9554749999999994 Q 5.639975463867188 1.9554749999999994 5.638475463867188 1.9554749999999994 Q 5.636975463867188 1.9554749999999994 5.635475463867188 1.9554749999999994 L 5.476475463867188 1.4837249999999995 Q 5.466725463867188 1.4544749999999995 5.454725463867188 1.4454749999999996 Q 5.442725463867188 1.4364749999999995 5.432225463867188 1.4357249999999995 L 5.432225463867188 1.4207249999999996 Q 5.445725463867188 1.4214749999999996 5.465975463867188 1.4222249999999996 Q 5.4862254638671875 1.4229749999999994 5.504975463867188 1.4229749999999994 Q 5.5342254638671875 1.4229749999999994 5.559725463867188 1.4222249999999996 Q 5.585225463867188 1.4214749999999996 5.600975463867188 1.4207249999999996 L 5.600975463867188 1.4357249999999995 Q 5.578475463867187 1.4364749999999995 5.565350463867188 1.4402249999999994 Q 5.552225463867188 1.4439749999999996 5.550350463867188 1.4567249999999996 Q 5.548475463867188 1.4694749999999994 5.5574754638671875 1.4987249999999994 L 5.669225463867188 1.8444749999999994 L 5.658725463867188 1.8534749999999995 L 5.757725463867188 1.5422249999999995 Q 5.771225463867188 1.5009749999999995 5.770100463867188 1.4780999999999995 Q 5.7689754638671875 1.4552249999999995 5.753225463867188 1.4458499999999996 Q 5.737475463867188 1.4364749999999995 5.705975463867188 1.4357249999999995 L 5.705975463867188 1.4207249999999996 Q 5.727725463867188 1.4214749999999996 5.750225463867188 1.4222249999999996 Q 5.772725463867188 1.4229749999999994 5.7922254638671875 1.4229749999999994 Q 5.811725463867187 1.4229749999999994 5.824475463867188 1.4222249999999996 Q 5.837225463867188 1.4214749999999996 5.848475463867188 1.4207249999999996 M 5.3242254638671875 1.4207249999999996 L 5.3242254638671875 1.4357249999999995 Q 5.304725463867188 1.4372249999999995 5.296100463867188 1.4432249999999995 Q 5.287475463867188 1.4492249999999993 5.287850463867188 1.4623499999999994 Q 5.288225463867188 1.4754749999999994 5.295725463867188 1.4987249999999994 L 5.411975463867188 1.8534749999999995 L 5.3932254638671875 1.8722249999999996 L 5.498225463867188 1.5369749999999995 L 5.5094754638671875 1.5549749999999996 L 5.385725463867188 1.9554749999999994 Q 5.384225463867188 1.9554749999999994 5.382725463867188 1.9554749999999994 Q 5.381225463867188 1.9554749999999994 5.379725463867188 1.9554749999999994 Q 5.378225463867188 1.9554749999999994 5.376725463867188 1.9554749999999994 Q 5.375225463867188 1.9554749999999994 5.373725463867188 1.9554749999999994 L 5.214725463867188 1.4837249999999995 Q 5.2049754638671875 1.4544749999999995 5.189975463867188 1.4454749999999996 Q 5.174975463867188 1.4364749999999995 5.162975463867188 1.4357249999999995 L 5.162975463867188 1.4207249999999996 Q 5.177975463867188 1.4214749999999996 5.200100463867188 1.4222249999999996 Q 5.222225463867188 1.4229749999999994 5.243225463867188 1.4229749999999994 Q 5.267975463867188 1.4229749999999994 5.289350463867188 1.4222249999999996 Q 5.310725463867188 1.4214749999999996 5.3242254638671875 1.4207249999999996 M 6.114736450195313 1.4102249999999996 Q 6.185986450195313 1.4102249999999996 6.239611450195313 1.4424749999999995 Q 6.293236450195312 1.4747249999999994 6.322861450195313 1.5350999999999995 Q 6.352486450195313 1.5954749999999995 6.352486450195313 1.6817249999999995 Q 6.352486450195313 1.7657249999999995 6.322111450195313 1.8287249999999995 Q 6.291736450195313 1.8917249999999994 6.237736450195313 1.9269749999999994 Q 6.183736450195313 1.9622249999999994 6.113986450195313 1.9622249999999994 Q 6.042736450195313 1.9622249999999994 5.989111450195313 1.9299749999999996 Q 5.935486450195313 1.8977249999999994 5.905861450195313 1.8369749999999996 Q 5.876236450195313 1.7762249999999995 5.876236450195313 1.6907249999999996 Q 5.876236450195313 1.6067249999999995 5.906986450195313 1.5437249999999993 Q 5.937736450195313 1.4807249999999994 5.9913614501953125 1.4454749999999996 Q 6.044986450195313 1.4102249999999996 6.114736450195313 1.4102249999999996 M 6.111736450195313 1.4237249999999995 Q 6.062986450195313 1.4237249999999995 6.026986450195313 1.4574749999999994 Q 5.9909864501953125 1.4912249999999996 5.971111450195313 1.5504749999999996 Q 5.951236450195313 1.6097249999999994 5.951236450195313 1.6877249999999995 Q 5.951236450195313 1.7672249999999994 5.973361450195313 1.8260999999999994 Q 5.995486450195313 1.8849749999999994 6.033361450195313 1.9168499999999995 Q 6.071236450195313 1.9487249999999996 6.116986450195313 1.9487249999999996 Q 6.165736450195313 1.9487249999999996 6.2017364501953125 1.9149749999999994 Q 6.237736450195313 1.8812249999999995 6.257611450195313 1.8215999999999994 Q 6.277486450195313 1.7619749999999994 6.277486450195313 1.6847249999999994 Q 6.277486450195313 1.6044749999999994 6.255361450195313 1.5459749999999994 Q 6.233236450195313 1.4874749999999994 6.195736450195313 1.4555999999999996 Q 6.158236450195313 1.4237249999999995 6.111736450195313 1.4237249999999995 M 6.418510620117188 1.4207249999999996 Q 6.434260620117188 1.4214749999999996 6.459760620117188 1.4222249999999996 Q 6.485260620117188 1.4229749999999994 6.510010620117188 1.4229749999999994 Q 6.545260620117188 1.4229749999999994 6.577510620117188 1.4222249999999996 Q 6.6097606201171875 1.4214749999999996 6.623260620117188 1.4214749999999996 Q 6.684010620117188 1.4214749999999996 6.724135620117188 1.4387249999999994 Q 6.764260620117188 1.4559749999999996 6.784135620117188 1.4855999999999994 Q 6.804010620117188 1.5152249999999996 6.804010620117188 1.5519749999999994 Q 6.804010620117188 1.5744749999999994 6.795010620117188 1.5999749999999995 Q 6.786010620117188 1.6254749999999996 6.763885620117188 1.6479749999999995 Q 6.741760620117188 1.6704749999999995 6.7035106201171875 1.6850999999999994 Q 6.665260620117188 1.6997249999999995 6.606760620117188 1.6997249999999995 L 6.534760620117188 1.6997249999999995 L 6.534760620117188 1.6847249999999994 L 6.599260620117188 1.6847249999999994 Q 6.652510620117188 1.6847249999999994 6.680635620117188 1.6678499999999996 Q 6.708760620117188 1.6509749999999994 6.718885620117188 1.6228499999999995 Q 6.7290106201171875 1.5947249999999995 6.7290106201171875 1.5602249999999995 Q 6.7290106201171875 1.5009749999999995 6.700885620117188 1.4683499999999996 Q 6.672760620117188 1.4357249999999995 6.604510620117188 1.4357249999999995 Q 6.570010620117188 1.4357249999999995 6.559510620117188 1.4484749999999995 Q 6.549010620117188 1.4612249999999996 6.549010620117188 1.5002249999999995 L 6.549010620117188 1.8722249999999996 Q 6.549010620117188 1.8992249999999995 6.553510620117188 1.9127249999999996 Q 6.558010620117188 1.9262249999999994 6.571135620117188 1.9307249999999996 Q 6.584260620117188 1.9352249999999995 6.6097606201171875 1.9367249999999996 L 6.6097606201171875 1.9517249999999995 Q 6.592510620117188 1.9502249999999994 6.566635620117188 1.9498499999999994 Q 6.5407606201171875 1.9494749999999994 6.514510620117188 1.9494749999999994 Q 6.485260620117188 1.9494749999999994 6.459760620117188 1.9498499999999994 Q 6.434260620117188 1.9502249999999994 6.418510620117188 1.9517249999999995 L 6.418510620117188 1.9367249999999996 Q 6.444010620117188 1.9352249999999995 6.457135620117188 1.9307249999999996 Q 6.4702606201171875 1.9262249999999994 6.474760620117188 1.9127249999999996 Q 6.479260620117188 1.8992249999999995 6.479260620117188 1.8722249999999996 L 6.479260620117188 1.5002249999999995 Q 6.479260620117188 1.4724749999999995 6.474760620117188 1.4593499999999995 Q 6.4702606201171875 1.4462249999999994 6.457135620117188 1.4413499999999995 Q 6.444010620117188 1.4364749999999995 6.418510620117188 1.4357249999999995 L 6.418510620117188 1.4207249999999996 M 6.537760620117188 1.6869749999999994 Q 6.578260620117188 1.6884749999999995 6.601510620117188 1.6903499999999996 Q 6.624760620117188 1.6922249999999994 6.639385620117188 1.6937249999999995 Q 6.654010620117188 1.6952249999999995 6.667510620117188 1.6974749999999994 Q 6.717760620117188 1.7057249999999995 6.739885620117188 1.7278499999999994 Q 6.762010620117188 1.7499749999999994 6.772510620117188 1.7964749999999996 L 6.791260620117188 1.8729749999999994 Q 6.7987606201171875 1.9059749999999995 6.806635620117188 1.9205999999999994 Q 6.814510620117188 1.9352249999999995 6.831010620117188 1.9344749999999995 Q 6.843760620117187 1.9337249999999995 6.852385620117188 1.9262249999999994 Q 6.861010620117188 1.9187249999999996 6.870760620117188 1.9059749999999995 L 6.882010620117188 1.9142249999999994 Q 6.866260620117188 1.9374749999999994 6.849385620117188 1.9498499999999994 Q 6.832510620117188 1.9622249999999994 6.801760620117188 1.9622249999999994 Q 6.774010620117188 1.9622249999999994 6.753010620117188 1.9457249999999995 Q 6.732010620117188 1.9292249999999995 6.721510620117188 1.8812249999999995 L 6.7050106201171875 1.8062249999999995 Q 6.698260620117188 1.7739749999999994 6.689635620117188 1.7503499999999994 Q 6.6810106201171875 1.7267249999999994 6.665635620117188 1.7132249999999996 Q 6.650260620117188 1.6997249999999995 6.620260620117188 1.6997249999999995 L 6.539260620117188 1.6997249999999995 L 6.537760620117188 1.6869749999999994 M 7.335018310546875 1.4207249999999996 L 7.335018310546875 1.4357249999999995 Q 7.311768310546875 1.4387249999999994 7.290018310546875 1.4507249999999994 Q 7.268268310546875 1.4627249999999994 7.246518310546875 1.4904749999999996 L 7.101768310546875 1.6757249999999995 L 7.118268310546876 1.6389749999999994 L 7.2982683105468755 1.8909749999999994 Q 7.311018310546875 1.9097249999999995 7.326018310546876 1.9202249999999994 Q 7.341018310546875 1.9307249999999996 7.364268310546875 1.9367249999999996 L 7.364268310546875 1.9517249999999995 Q 7.346268310546876 1.9502249999999994 7.3196433105468754 1.9498499999999994 Q 7.293018310546875 1.9494749999999994 7.2742683105468755 1.9494749999999994 Q 7.261518310546875 1.9494749999999994 7.243143310546875 1.9498499999999994 Q 7.224768310546875 1.9502249999999994 7.197018310546875 1.9517249999999995 L 7.197018310546875 1.9367249999999996 Q 7.222518310546875 1.9352249999999995 7.229268310546876 1.9277249999999995 Q 7.236018310546876 1.9202249999999994 7.224018310546875 1.9029749999999994 L 7.114518310546876 1.7379749999999996 Q 7.099518310546875 1.7147249999999994 7.0878933105468755 1.7030999999999994 Q 7.076268310546875 1.6914749999999996 7.0638933105468755 1.6877249999999995 Q 7.051518310546875 1.6839749999999996 7.032768310546875 1.6832249999999995 L 7.032768310546875 1.6682249999999994 Q 7.0642683105468755 1.6674749999999996 7.0856433105468755 1.6558499999999996 Q 7.107018310546875 1.6442249999999996 7.121268310546875 1.6262249999999994 L 7.193268310546875 1.5347249999999995 Q 7.218018310546875 1.5032249999999996 7.2270183105468755 1.4814749999999994 Q 7.236018310546876 1.4597249999999995 7.2262683105468755 1.4480999999999995 Q 7.216518310546875 1.4364749999999995 7.185018310546876 1.4357249999999995 L 7.185018310546876 1.4207249999999996 Q 7.199268310546875 1.4214749999999996 7.214268310546876 1.4218499999999996 Q 7.229268310546876 1.4222249999999996 7.243893310546875 1.4225999999999996 Q 7.258518310546876 1.4229749999999994 7.271268310546875 1.4229749999999994 Q 7.290768310546875 1.4229749999999994 7.307268310546876 1.4222249999999996 Q 7.323768310546876 1.4214749999999996 7.335018310546875 1.4207249999999996 M 7.096518310546875 1.4207249999999996 L 7.096518310546875 1.4357249999999995 Q 7.071018310546876 1.4364749999999995 7.057893310546875 1.4413499999999995 Q 7.044768310546876 1.4462249999999994 7.0402683105468755 1.4593499999999995 Q 7.035768310546875 1.4724749999999995 7.035768310546875 1.5002249999999995 L 7.035768310546875 1.8722249999999996 Q 7.035768310546875 1.8992249999999995 7.0402683105468755 1.9127249999999996 Q 7.044768310546876 1.9262249999999994 7.057893310546875 1.9307249999999996 Q 7.071018310546876 1.9352249999999995 7.096518310546875 1.9367249999999996 L 7.096518310546875 1.9517249999999995 Q 7.079268310546875 1.9502249999999994 7.053393310546875 1.9498499999999994 Q 7.027518310546875 1.9494749999999994 7.001268310546876 1.9494749999999994 Q 6.972018310546876 1.9494749999999994 6.9465183105468755 1.9498499999999994 Q 6.921018310546875 1.9502249999999994 6.905268310546876 1.9517249999999995 L 6.905268310546876 1.9367249999999996 Q 6.930768310546876 1.9352249999999995 6.943893310546875 1.9307249999999996 Q 6.957018310546875 1.9262249999999994 6.961518310546875 1.9127249999999996 Q 6.966018310546875 1.8992249999999995 6.966018310546875 1.8722249999999996 L 6.966018310546875 1.5002249999999995 Q 6.966018310546875 1.4724749999999995 6.961518310546875 1.4593499999999995 Q 6.957018310546875 1.4462249999999994 6.943893310546875 1.4413499999999995 Q 6.930768310546876 1.4364749999999995 6.905268310546876 1.4357249999999995 L 6.905268310546876 1.4207249999999996 Q 6.921018310546875 1.4214749999999996 6.9465183105468755 1.4222249999999996 Q 6.972018310546876 1.4229749999999994 7.001268310546876 1.4229749999999994 Q 7.027518310546875 1.4229749999999994 7.053393310546875 1.4222249999999996 Q 7.079268310546875 1.4214749999999996 7.096518310546875 1.4207249999999996 M 7.557790283203126 1.4124749999999995 Q 7.595290283203125 1.4124749999999995 7.614790283203125 1.4210999999999996 Q 7.634290283203126 1.4297249999999995 7.6492902832031255 1.4402249999999994 Q 7.658290283203126 1.4454749999999996 7.663915283203125 1.4480999999999995 Q 7.669540283203125 1.4507249999999994 7.674790283203126 1.4507249999999994 Q 7.682290283203125 1.4507249999999994 7.685665283203125 1.4424749999999995 Q 7.689040283203125 1.4342249999999996 7.691290283203125 1.4177249999999995 L 7.708540283203125 1.4177249999999995 Q 7.707790283203125 1.4304749999999995 7.706665283203125 1.4480999999999995 Q 7.705540283203126 1.4657249999999995 7.705165283203126 1.4945999999999995 Q 7.704790283203126 1.5234749999999995 7.704790283203126 1.5707249999999995 L 7.687540283203125 1.5707249999999995 Q 7.685290283203125 1.5347249999999995 7.6717902832031255 1.5017249999999995 Q 7.658290283203126 1.4687249999999996 7.632415283203126 1.4477249999999995 Q 7.606540283203126 1.4267249999999994 7.564540283203126 1.4267249999999994 Q 7.524790283203125 1.4267249999999994 7.498915283203125 1.4507249999999994 Q 7.473040283203125 1.4747249999999994 7.473040283203125 1.5137249999999995 Q 7.473040283203125 1.5474749999999995 7.490290283203126 1.5703499999999995 Q 7.5075402832031255 1.5932249999999994 7.536415283203126 1.6115999999999995 Q 7.565290283203126 1.6299749999999995 7.599040283203125 1.6509749999999994 Q 7.638040283203125 1.6749749999999994 7.668415283203125 1.6985999999999994 Q 7.698790283203126 1.7222249999999995 7.716415283203125 1.7507249999999994 Q 7.734040283203125 1.7792249999999994 7.734040283203125 1.8197249999999996 Q 7.734040283203125 1.8677249999999994 7.712290283203125 1.8992249999999995 Q 7.690540283203125 1.9307249999999996 7.654540283203126 1.9464749999999995 Q 7.618540283203125 1.9622249999999994 7.575040283203125 1.9622249999999994 Q 7.535290283203126 1.9622249999999994 7.512040283203126 1.9532249999999995 Q 7.488790283203126 1.9442249999999994 7.472290283203125 1.9344749999999995 Q 7.455790283203125 1.9239749999999995 7.446790283203126 1.9239749999999995 Q 7.439290283203126 1.9239749999999995 7.4359152832031254 1.9322249999999994 Q 7.432540283203125 1.9404749999999995 7.430290283203125 1.9569749999999995 L 7.4130402832031255 1.9569749999999995 Q 7.4145402832031255 1.9412249999999995 7.4149152832031255 1.9198499999999994 Q 7.4152902832031256 1.8984749999999995 7.415665283203126 1.8639749999999995 Q 7.416040283203126 1.8294749999999995 7.416040283203126 1.7769749999999995 L 7.433290283203125 1.7769749999999995 Q 7.4362902832031255 1.8219749999999995 7.450165283203125 1.8609749999999994 Q 7.464040283203126 1.8999749999999995 7.492915283203126 1.9235999999999995 Q 7.521790283203125 1.9472249999999995 7.569790283203125 1.9472249999999995 Q 7.594540283203125 1.9472249999999995 7.616665283203125 1.9370999999999994 Q 7.638790283203125 1.9269749999999994 7.653040283203126 1.9048499999999995 Q 7.667290283203125 1.8827249999999995 7.667290283203125 1.8474749999999995 Q 7.667290283203125 1.8167249999999995 7.652665283203126 1.7938499999999995 Q 7.638040283203125 1.7709749999999995 7.611790283203126 1.7510999999999994 Q 7.585540283203126 1.7312249999999996 7.550290283203125 1.7102249999999994 Q 7.515040283203126 1.6884749999999995 7.4842902832031255 1.6659749999999995 Q 7.453540283203125 1.6434749999999996 7.435165283203125 1.6138499999999996 Q 7.416790283203126 1.5842249999999996 7.416790283203126 1.5422249999999995 Q 7.416790283203126 1.4979749999999994 7.4366652832031255 1.4690999999999994 Q 7.456540283203125 1.4402249999999994 7.488790283203126 1.4263499999999993 Q 7.521040283203125 1.4124749999999995 7.557790283203126 1.4124749999999995" fill="#4e888f" fill-rule="nonzero"></path></g></g><defs><clipPath id="SvgjsClipPath95112"><path d=" M -4.4939727940601655 -1.0711239491948885 h 4.093972794060165 v 4.093972898389777 h -4.093972794060165 Z"></path></clipPath><clipPath id="a6eb9ccd6-45ec-4267-827b-d182bbc21d84416065bf-c9d1-4710-88aa-853dbd6cfce8"><path d=" M -4.493965347894585 3.0228413986996965 L -0.4000077613488786 3.0228413986996965 L -0.4000077613488786 -1.07111618784601 L -4.493965347894585 -1.07111618784601 Z"></path></clipPath></defs></svg>